{"accessors" : [{"bufferView" : 0, "byteOffset" : 0, "componentType" : 5123, "count" : 16614, "type" : "SCALAR", "max" : [13885], "min" : [0]}, {"bufferView" : 1, "byteOffset" : 0, "componentType" : 5126, "count" : 13886, "type" : "VEC3", "max" : [0.3321627676486969, 0.43840163946151733, 0.24673594534397125], "min" : [-0.3322729170322418, -0.436862975358963, -0.163730189204216], "name" : "POSITION"}, {"bufferView" : 1, "byteOffset" : 12, "componentType" : 5126, "count" : 13886, "type" : "VEC3", "max" : [0.9998571872711182, 0.998837411403656, 0.9975725412368774], "min" : [-0.9990181922912598, -0.9999446272850037, -1.000003695487976], "name" : "NORMAL"}, {"bufferView" : 1, "byteOffset" : 24, "componentType" : 5126, "count" : 13886, "type" : "VEC2", "max" : [0.9150390625, 1], "min" : [0, 0], "name" : "TEXCOORD_0"}], "asset" : {"generator" : "Aspose.3D 23.7.0", "version" : "2.0"}, "buffers" : [{"uri" : "data:application/octet-stream;base64,", "byteLength" : 564884}], "bufferViews" : [{"buffer" : 0, "byteOffset" : 0, "byteLength" : 33228, "target" : 34963}, {"buffer" : 0, "byteOffset" : 33232, "byteLength" : 531648, "byteStride" : 32, "target" : 34962}], "images" : [{"uri" : "data:image/jpeg;base64,"}], "materials" : [{"pbrMetallicRoughness" : {"baseColorFactor" : [1, 1, 1, 1], "baseColorTexture" : {"index" : 0, "texCoord" : 0}, "metallicFactor" : 0, "roughnessFactor" : 0.8}, "emissiveFactor" : [0, 0, 0], "alphaMode" : "OPAQUE", "doubleSided" : true}], "meshes" : [{"primitives" : [{"attributes" : {"POSITION" : 1, "NORMAL" : 2, "TEXCOORD_0" : 3}, "indices" : 0, "material" : 0, "mode" : 4}]}], "nodes" : [{"matrix" : [1.1426526308059692, 0, 0, 0, 0, 1.1426526308059692, 0, 0, 0, 0, 1.1426526308059692, 0, 0.0001414590806234628, -0.000673752510920167, -0.04768907651305199, 1], "mesh" : 0, "name" : "Node #0"}], "samplers" : [{"magFilter" : 9729, "minFilter" : 9987, "wrapS" : 10497, "wrapT" : 10497}], "scene" : 0, "scenes" : [{"nodes" : [0]}], "textures" : [{"sampler" : 0, "source" : 0, "name" : ""}]}